{
    "asset": {
        "version": "2.0",
        "generator": "Open Asset Import Library (assimp v5.0.5eb040c7)"
    },
    "accessors": [
        {
            "bufferView": 0,
            "byteOffset": 0,
            "componentType": 5126,
            "count": 7818,
            "type": "VEC3",
            "max": [
                0.22078938782215119,
                0.1464471071958542,
                0.3255249559879303
            ],
            "min": [
                -0.22078938782215119,
                -0.31991568207740786,
                -0.25701794028282168
            ]
        },
        {
            "bufferView": 1,
            "byteOffset": 0,
            "componentType": 5126,
            "count": 7818,
            "type": "VEC3",
            "max": [
                1.0,
                0.9999883770942688,
                0.9999777674674988
            ],
            "min": [
                -1.0,
                -0.9999938607215881,
                -0.999998927116394
            ]
        },
        {
            "bufferView": 2,
            "byteOffset": 0,
            "componentType": 5125,
            "count": 25584,
            "type": "SCALAR",
            "max": [
                7817
            ],
            "min": [
                0
            ]
        }
    ],
    "buffers": [
        {
            "byteLength": 289968,
            "uri": "result.bin"
        }
    ],
    "bufferViews": [
        {
            "buffer": 0,
            "byteOffset": 0,
            "byteLength": 93816,
            "target": 34962
        },
        {
            "buffer": 0,
            "byteOffset": 93816,
            "byteLength": 93816,
            "target": 34962
        },
        {
            "buffer": 0,
            "byteOffset": 187632,
            "byteLength": 102336,
            "target": 34963
        }
    ],
    "images": [
        {
            "uri": "Bag_diffuse.png"
        },
        {
            "uri": "Bag_normalmap.png"
        }
    ],
    "materials": [
        {
            "name": "Bag",
            "pbrMetallicRoughness": {
                "baseColorTexture": {
                    "index": 0
                },
                "metallicFactor": 0.0,
                "roughnessFactor": 0.8960281610488892
            },
            "normalTexture": {
                "index": 1
            }
        }
    ],
    "meshes": [
        {
            "name": "Bag",
            "primitives": [
                {
                    "mode": 4,
                    "material": 0,
                    "indices": 2,
                    "attributes": {
                        "POSITION": 0,
                        "NORMAL": 1
                    }
                }
            ]
        }
    ],
    "nodes": [
        {
            "name": "RootNode",
            "children": [
                1
            ]
        },
        {
            "name": "Bag",
            "matrix": [
                100.0,
                0.0,
                0.0,
                0.0,
                0.0,
                100.0,
                0.0,
                0.0,
                0.0,
                0.0,
                100.0,
                0.0,
                0.0,
                0.0,
                0.0,
                1.0
            ],
            "mesh": 0
        }
    ],
    "samplers": [
        {},
        {}
    ],
    "scenes": [
        {
            "nodes": [
                0
            ]
        }
    ],
    "textures": [
        {
            "source": 0,
            "sampler": 0
        },
        {
            "source": 1,
            "sampler": 1
        }
    ],
    "scene": 0
}